<svg width="226" height="79" viewBox="0 0 226 79" fill="none" xmlns="http://www.w3.org/2000/svg">
<path d="M223.902 27.4083C223.202 27.9083 222.502 28.5083 221.702 29.0083C219.602 30.2083 217.302 31.3083 215.602 33.1083C215.202 33.5083 214.602 33.8083 214.102 34.1083C212.902 34.8083 211.402 35.2083 210.602 36.2083C208.802 38.3083 206.002 39.0083 204.302 41.2083C204.102 41.5083 203.602 41.6083 203.302 41.7083C201.902 42.2083 201.002 43.2083 200.002 44.2083C199.702 44.5083 199.402 45.1083 199.002 45.3083C196.802 46.3083 195.102 48.0083 193.202 49.5083C189.202 52.6083 184.802 55.1083 180.602 58.1083C179.302 59.0083 177.802 59.6083 176.102 59.6083C176.002 58.9083 175.802 58.4083 175.802 57.8083C176.002 55.2083 176.702 52.7083 178.102 50.5083C178.402 50.0083 178.702 49.5083 179.002 49.0083C180.702 45.3083 182.602 41.7083 184.802 38.3083C185.002 38.0083 185.202 37.6083 185.402 37.3083C187.202 33.4083 188.202 29.2083 189.202 25.1083C189.302 24.8083 189.302 24.5083 189.302 24.2083C188.802 21.1083 188.302 18.1083 185.402 16.1083C184.802 15.7083 184.402 15.1083 183.902 14.7083C182.602 13.7083 181.402 12.7083 180.002 12.0083C178.202 11.0083 176.102 10.7083 174.202 11.1083C172.002 11.5083 169.702 12.3083 167.802 13.4083C166.402 14.1083 165.102 14.5083 163.602 14.5083C163.202 14.9083 162.902 15.3083 162.602 15.7083C161.902 16.6083 161.202 17.3083 159.902 17.2083C159.602 17.2083 159.302 17.3083 159.102 17.5083C157.802 18.5083 156.202 18.8083 155.002 19.9083C154.002 20.8083 152.802 21.5083 151.602 22.3083C149.302 23.9083 146.902 25.3083 144.702 26.9083C141.902 28.9083 139.102 31.0083 136.402 33.2083C132.102 36.7083 127.702 40.2083 123.502 43.9083C119.502 47.3083 115.702 51.0083 111.702 54.5083C110.002 56.0083 108.002 57.2083 106.302 58.8083C104.102 61.0083 101.502 62.6083 98.9016 64.4083C97.9016 65.1083 96.8016 65.5083 95.6016 65.8083C93.8016 66.3083 92.9016 65.4083 93.1016 63.6083C93.2016 62.9083 93.3016 62.2083 93.6016 61.6083C95.2016 58.0083 96.8016 54.3083 98.6016 50.8083C99.9016 48.2083 100.902 45.5083 102.002 42.8083C103.202 39.9083 104.402 36.9083 106.302 34.3083C107.102 33.3083 107.502 32.3083 107.702 31.1083C108.002 29.4083 108.302 27.8083 108.602 26.5083C108.402 24.9083 108.202 23.6083 108.002 22.2083C107.902 21.4083 107.702 20.6083 107.402 19.9083C106.902 18.8083 106.202 17.8083 105.602 16.8083C105.202 16.2083 104.902 15.5083 104.402 15.2083C103.102 14.2083 101.802 13.3083 100.402 12.6083C98.7016 11.7083 96.9016 10.9083 95.0016 12.1083C94.8016 12.2083 94.6016 12.3083 94.4016 12.2083C92.6016 11.6083 91.1016 12.5083 89.6016 13.3083C88.6016 13.8083 87.6016 14.1083 86.6016 14.6083C84.5016 15.6083 82.2016 16.5083 80.2016 17.8083C78.5016 19.0083 76.6016 19.9083 74.8016 21.0083C74.2016 21.3083 73.7016 21.8083 73.1016 22.2083C72.4016 22.7083 71.6016 23.2083 70.9016 23.7083C68.2016 25.4083 65.5016 27.0083 62.9016 28.9083C58.7016 32.1083 54.6016 35.4083 50.5016 38.8083C47.3016 41.5083 44.1016 44.2083 41.0016 47.0083C39.3016 48.5083 37.6016 50.1083 35.8016 51.5083C33.8016 53.1083 31.6016 54.5083 29.9016 56.5083C29.5016 57.0083 28.8016 57.3083 28.2016 57.7083C27.8016 58.0083 27.3016 58.2083 27.0016 58.5083C24.9016 60.7083 22.1016 61.9083 19.7016 63.7083C19.3016 64.0083 18.8016 64.3083 18.4016 63.8083C18.4016 63.6083 18.3016 63.4083 18.4016 63.2083C19.3016 61.3083 20.2016 59.4083 21.1016 57.6083C21.3016 57.2083 21.8016 56.9083 22.2016 56.7083C23.5016 55.9083 23.5016 55.9083 24.3016 54.6083C24.0016 54.5083 23.6016 54.3083 23.1016 54.1083C24.5016 52.2083 25.9016 50.3083 26.3016 48.0083C26.3016 47.7083 26.6016 47.5083 26.7016 47.2083C27.4016 46.1083 28.1016 45.1083 28.8016 44.0083C29.4016 41.9083 30.7016 40.2083 31.8016 38.3083C33.6016 35.4083 35.7016 32.7083 37.2016 29.6083C37.2016 28.6083 37.5016 27.7083 38.4016 27.2083C38.5016 25.4083 39.3016 24.0083 40.8016 23.0083C41.0016 22.6083 41.2016 22.2083 41.4016 21.8083C41.7016 21.3083 41.9016 20.8083 42.3016 20.4083C43.4016 19.1083 44.0016 17.7083 44.0016 16.1083C44.0016 15.7083 44.2016 15.3083 44.3016 14.9083C45.0016 11.4083 43.7016 8.50829 41.3016 5.90829C39.8016 4.30829 37.8016 3.60829 36.1016 2.40829C32.9016 0.108293 29.5016 0.908293 26.1016 1.40829C25.6016 1.50829 25.0016 1.90829 24.6016 2.20829C24.0016 2.80829 23.4016 3.30829 22.5016 3.30829C21.2016 3.30829 21.0016 4.40829 20.5016 5.30829H18.2016C16.3016 6.50829 14.5016 7.50829 12.9016 8.50829C12.0016 9.10829 11.1016 9.70829 10.3016 10.5083C9.10156 11.8083 8.20157 13.4083 6.10156 13.5083C5.70157 13.5083 5.30156 14.1083 4.90157 14.4083C3.40157 15.4083 2.00156 16.4083 0.501564 17.4083C0.101562 17.7083 -0.498444 17.8083 -0.698441 18.2083C-1.59844 19.5083 -2.99844 20.0083 -4.39844 20.5083C-4.69844 21.4083 -4.99844 22.2083 -5.39844 23.1083C-6.49844 22.3083 -7.39844 22.5083 -8.09843 23.5083C-8.79843 24.4083 -9.59843 25.4083 -10.3984 26.2083C-10.9984 26.7083 -11.6984 27.4083 -12.3984 27.4083C-13.7984 27.5083 -14.4984 28.3083 -15.3984 29.1083C-17.8984 31.4083 -20.5984 33.4083 -23.2984 35.5083C-25.5984 37.2083 -27.9984 38.8083 -29.1984 41.5083C-30.3984 41.1083 -31.3984 41.3083 -32.2984 42.0083C-32.8984 42.4083 -33.3984 42.9083 -33.8984 43.3083C-35.2984 44.6083 -36.5984 46.0083 -37.9984 47.3083C-39.2984 48.6083 -41.0984 49.7083 -42.6984 50.2083C-42.4984 49.9083 -42.3984 49.6083 -42.1984 49.4083C-40.3984 46.8083 -38.5984 44.2083 -36.7984 41.5083C-36.0984 40.5083 -35.7984 39.3083 -35.0984 38.4083C-32.7984 35.2083 -30.4984 32.0083 -28.0984 28.8083C-25.7984 25.8083 -23.9984 22.4083 -22.1984 19.1083C-21.7984 18.4083 -21.5984 17.6083 -21.2984 16.9083C-20.8984 15.9083 -20.9984 15.0083 -21.3984 14.0083C-21.9984 12.6083 -22.5984 11.3083 -23.1984 9.90829C-23.6984 8.80829 -24.4984 7.90829 -25.5984 7.30829C-26.4984 6.80829 -27.4984 6.20829 -28.2984 5.40829C-29.4984 4.30829 -30.8984 3.50829 -32.2984 2.70829C-34.8984 1.30829 -37.3984 1.30829 -39.9984 2.50829C-41.0984 3.00829 -42.1984 3.40829 -43.2984 3.80829C-44.7984 4.20829 -46.3984 4.70829 -47.8984 5.40829C-48.9984 5.90829 -50.0984 6.40829 -51.1984 6.90829C-54.9984 9.00829 -58.8984 11.0083 -62.5984 13.4083C-62.6984 13.5083 -62.7984 13.5083 -62.7984 13.6083C-65.7984 15.5083 -68.9984 17.3083 -71.8984 19.3083C-74.5984 21.1083 -76.9984 23.2083 -79.5984 25.1083C-79.9984 25.4083 -80.4984 25.8083 -80.8984 26.1083C-83.9984 28.3083 -86.8984 30.6083 -89.7984 33.0083C-95.6984 37.8083 -101.498 42.7083 -106.898 48.0083C-108.298 49.3083 -109.598 50.6083 -110.898 52.0083C-113.898 55.1083 -116.698 58.3083 -119.598 61.5083C-121.498 63.6083 -123.198 65.8083 -124.998 67.9083C-125.298 68.0083 -125.298 68.4083 -125.398 68.6083C-124.198 69.9083 -123.098 71.1083 -121.898 72.4083C-121.598 72.8083 -121.198 73.1083 -120.798 73.4083C-118.898 74.9083 -117.198 74.6083 -115.698 72.7083C-115.098 71.9083 -114.398 71.2083 -113.698 70.5083C-113.098 69.9083 -112.398 69.3083 -111.798 68.6083C-110.398 67.2083 -109.098 65.7083 -107.798 64.2083C-107.498 63.9083 -107.198 63.7083 -106.898 63.6083C-104.598 62.4083 -102.498 61.0083 -100.898 58.9083C-100.698 58.6083 -100.298 58.5083 -99.8984 58.4083C-98.2984 57.8083 -96.8984 57.0083 -96.3984 55.1083C-96.2984 54.5083 -95.5984 54.0083 -95.1984 53.4083C-93.8984 54.1083 -92.7984 53.9083 -91.8984 52.9083C-90.3984 51.3083 -88.5984 50.0083 -87.8984 47.8083C-87.7984 47.6083 -87.6984 47.5083 -87.4984 47.3083C-87.0984 47.0083 -86.5984 46.7083 -86.2984 47.4083C-85.8984 48.2083 -85.2984 48.0083 -84.7984 47.7083C-83.8984 47.1083 -83.1984 46.2083 -82.2984 45.6083C-80.6984 44.4083 -79.0984 43.3083 -77.5984 42.1083C-76.2984 41.1083 -75.0984 40.0083 -74.0984 38.7083C-73.6984 38.2083 -72.8984 38.0083 -72.2984 37.9083C-71.9984 37.9083 -71.5984 38.4083 -71.0984 38.9083C-70.7984 38.4083 -70.2984 37.9083 -70.1984 37.4083C-70.0984 36.0083 -69.0984 35.1083 -68.3984 34.1083C-66.4984 33.9083 -65.3984 32.2083 -63.6984 31.6083C-63.2984 31.9083 -62.9984 32.2083 -62.4984 32.6083C-62.4984 32.6083 -62.4984 32.6083 -62.3984 32.7083C-62.0984 32.3083 -61.5984 31.9083 -61.5984 31.6083C-61.6984 30.9083 -61.4984 30.4083 -60.9984 30.0083C-60.0984 29.3083 -59.1984 28.5083 -58.1984 27.8083C-57.1984 27.1083 -56.0984 26.4083 -55.2984 25.4083C-55.1984 25.3083 -55.0984 25.2083 -55.0984 25.1083C-54.9984 24.9083 -54.7984 24.8083 -54.5984 24.6083C-54.2984 24.3083 -53.8984 24.0083 -53.4984 23.7083C-53.3984 23.6083 -53.1984 23.6083 -52.9984 23.5083C-52.6984 23.8083 -52.4984 24.0083 -52.1984 24.2083C-50.6984 23.3083 -50.6984 23.3083 -49.3984 23.1083C-49.6984 23.7083 -49.8984 24.2083 -50.1984 24.7083C-50.6984 25.6083 -51.2984 26.4083 -51.7984 27.2083C-53.6984 30.5083 -55.4984 33.8083 -57.3984 37.1083C-58.5984 39.1083 -59.7984 41.0083 -60.2984 43.3083C-60.2984 43.5083 -60.3984 43.7083 -60.4984 43.9083C-61.2984 45.1083 -61.8984 46.4083 -62.4984 47.7083C-63.0984 49.0083 -63.5984 50.4083 -64.1984 51.7083C-65.0984 53.5083 -65.6984 55.4083 -65.8984 57.3083C-66.3984 60.7083 -66.7984 64.0083 -66.0984 67.4083C-65.7984 69.0083 -65.0984 70.4083 -63.8984 71.5083C-63.1984 72.2083 -62.3984 72.8083 -61.6984 73.5083C-60.6984 74.3083 -59.6984 75.2083 -58.6984 76.0083C-57.9984 76.6083 -57.1984 77.0083 -56.5984 77.5083C-54.7984 79.2083 -52.8984 79.4083 -50.5984 78.3083C-49.5984 77.8083 -48.6984 77.2083 -47.5984 77.3083C-47.2984 77.3083 -46.9984 77.4083 -46.6984 77.6083C-46.4984 77.7083 -46.2984 77.7083 -46.0984 77.6083C-44.3984 76.6083 -42.2984 76.2083 -41.1984 74.4083C-40.3984 73.1083 -39.1984 72.2083 -37.7984 71.6083C-36.7984 71.1083 -35.8984 70.6083 -34.7984 70.1083C-34.0984 70.9083 -33.4984 71.7083 -32.6984 72.6083C-32.1984 72.0083 -31.8984 71.6083 -31.4984 71.2083C-31.2984 70.9083 -31.0984 70.4083 -30.7984 70.4083C-29.3984 70.2083 -28.8984 69.0083 -28.1984 68.1083C-27.6984 67.5083 -27.1984 66.9083 -26.4984 66.5083C-25.7984 66.1083 -25.1984 65.5083 -24.5984 65.0083C-24.0984 64.6083 -23.5984 64.0083 -22.9984 63.7083C-21.4984 63.0083 -20.2984 62.0083 -19.1984 60.9083C-18.2984 60.0083 -17.2984 59.1083 -15.8984 59.2083C-15.5984 59.2083 -15.1984 59.0083 -14.8984 58.7083C-13.8984 57.9083 -12.9984 57.0083 -11.9984 56.2083C-11.6984 56.0083 -11.2984 55.6083 -10.9984 55.7083C-9.99844 56.0083 -9.29844 55.1083 -8.39844 55.1083C-6.59843 55.2083 -5.39844 54.1083 -4.19844 53.1083C-2.59844 51.7083 -1.19844 50.2083 0.201561 48.6083C1.10156 47.5083 1.90157 46.4083 3.20157 45.7083C4.00157 45.3083 4.40157 44.5083 4.20157 43.7083C3.80157 42.3083 4.40157 41.1083 5.10156 40.0083C5.60156 39.1083 6.00156 38.0083 7.00156 37.4083C7.30156 37.2083 7.30156 36.5083 6.50156 36.3083C5.20155 37.5083 3.90157 38.6083 3.10156 40.3083C2.80156 41.1083 2.00156 41.6083 1.40157 42.3083C1.50156 42.0083 1.50156 41.6083 1.70156 41.3083C2.60156 39.7083 3.20157 38.0083 4.40157 36.5083C5.30156 35.3083 5.10156 35.0083 3.70157 34.0083C3.30157 33.8083 2.90157 33.6083 2.30156 33.3083C2.90157 32.7083 3.30157 32.3083 3.70157 31.9083C5.00157 30.7083 6.50156 29.7083 7.50156 28.1083C7.60156 28.0083 7.50156 27.7083 7.50156 27.6083C7.20155 27.6083 6.80156 27.5083 6.00156 27.5083C6.70155 27.0083 7.10156 26.6083 7.50156 26.4083C8.80156 26.0083 10.1016 25.6083 11.5016 25.3083C12.5016 25.1083 13.2016 24.8083 13.2016 23.6083C13.2016 23.4083 13.5016 23.2083 13.8016 22.9083C14.1016 23.4083 14.4016 23.9083 14.6016 24.3083C13.4016 25.4083 12.3016 26.5083 11.1016 27.5083C9.60156 28.7083 9.00156 30.3083 9.10156 32.2083C9.20157 32.9083 9.10156 33.6083 9.00156 34.3083C8.70155 35.8083 8.40157 37.3083 8.10156 39.0083C8.70157 38.7083 9.20157 38.4083 9.60156 38.4083C10.0016 38.4083 10.5016 38.6083 11.1016 38.7083C11.4016 37.7083 12.0016 36.8083 11.9016 36.1083C11.4016 34.4083 12.5016 33.5083 13.4016 32.5083C14.3016 31.5083 15.4016 30.6083 16.4016 29.6083C16.5016 29.5083 16.4016 29.3083 16.4016 29.1083C15.8016 29.2083 15.3016 29.3083 14.7016 29.4083C14.8016 28.4083 14.8016 27.5083 14.9016 26.6083C15.0016 26.2083 15.2016 25.6083 15.9016 25.8083C15.8016 26.4083 15.8016 27.0083 15.8016 27.6083C15.8016 27.7083 15.9016 27.7083 16.1016 27.9083C17.1016 27.6083 17.7016 26.9083 18.1016 26.1083C17.8016 25.6083 17.6016 25.2083 17.3016 24.8083C17.8016 24.1083 18.3016 23.5083 18.8016 22.9083C19.3016 22.7083 19.9016 22.6083 20.3016 22.2083C21.1016 21.6083 21.7016 21.7083 22.3016 22.3083C22.4016 25.3083 21.3016 27.7083 18.7016 29.3083C18.2016 29.6083 17.5016 29.9083 17.3016 30.4083C16.6016 32.0083 15.5016 33.1083 14.2016 34.6083C15.1016 35.0083 15.8016 35.3083 16.5016 35.6083C15.9016 37.0083 15.3016 38.3083 14.8016 39.7083C14.1016 41.6083 13.4016 43.4083 12.9016 45.4083C12.5016 47.4083 11.7016 49.3083 10.8016 51.2083C10.7016 51.5083 10.6016 51.8083 10.6016 52.1083C10.2016 54.8083 9.80156 57.6083 9.50156 60.4083C9.40155 60.9083 9.60156 61.4083 9.70157 61.9083C9.90157 63.0083 10.1016 64.1083 10.3016 65.1083C10.7016 66.6083 11.1016 68.0083 12.3016 69.0083C13.1016 69.7083 14.1016 70.2083 14.7016 71.2083C15.4016 72.4083 17.0016 71.6083 18.0016 72.3083C18.4016 72.6083 18.9016 72.7083 19.3016 73.0083C20.6016 72.7083 21.8016 72.3083 23.0016 72.0083C24.4016 72.9083 24.9016 73.0083 25.9016 72.4083C26.4016 72.1083 26.8016 71.6083 27.3016 71.3083C28.0016 70.8083 28.8016 70.4083 29.6016 70.0083C31.4016 69.1083 33.3016 68.2083 35.2016 67.2083C35.6016 67.0083 36.1016 66.7083 36.4016 66.3083C38.1016 63.9083 40.8016 62.6083 43.0016 60.8083C43.2016 60.6083 43.5016 60.4083 43.8016 60.4083C45.3016 60.6083 46.1016 59.4083 47.1016 58.7083C47.7016 58.3083 48.4016 57.7083 49.2016 57.6083C52.0016 57.3083 54.0016 55.7083 55.9016 54.0083C57.2016 52.9083 58.4016 51.7083 59.7016 50.6083C59.8016 50.5083 60.1016 50.5083 60.3016 50.5083C60.6016 50.8083 60.9016 51.2083 61.4016 51.7083C61.7016 51.2083 62.1016 50.8083 62.1016 50.4083C62.0016 49.4083 62.4016 48.7083 63.1016 48.0083C65.3016 46.1083 67.3016 44.1083 69.6016 42.3083C70.6016 41.5083 71.4016 40.8083 71.6016 39.5083C71.7016 38.8083 71.9016 38.1083 72.8016 38.0083C73.2016 38.3083 73.6016 38.6083 74.1016 38.9083C74.5016 38.5083 75.1016 38.1083 75.3016 37.6083C75.7016 36.0083 76.8016 34.9083 77.7016 33.5083C78.0016 33.1083 78.4016 32.7083 78.4016 32.2083C78.5016 30.3083 80.3016 29.5083 81.1016 28.0083C81.2016 27.8083 81.9016 27.7083 82.2016 27.9083C82.5016 28.0083 82.7016 28.5083 82.7016 28.8083C82.8016 29.1083 82.3016 29.5083 82.7016 29.9083C83.7016 30.1083 84.5016 29.8083 84.7016 28.7083C84.8016 28.2083 85.0016 27.7083 84.9016 27.3083C84.8016 26.6083 85.0016 26.2083 85.4016 25.7083C86.0016 24.8083 86.8016 24.6083 87.8016 24.2083C88.6016 23.9083 89.1016 22.8083 89.7016 22.1083C89.8016 22.0083 89.9016 22.0083 90.0016 22.0083C91.0016 22.1083 91.6016 21.4083 92.4016 20.9083C93.7016 20.2083 95.0016 19.3083 96.3016 18.7083C97.1016 18.3083 98.0016 18.1083 98.9016 19.1083C98.8016 21.4083 98.8016 23.9083 97.9016 26.2083C95.7016 31.9083 93.5016 37.5083 91.6016 43.3083C89.6016 49.3083 88.3016 55.3083 88.6016 61.7083C88.8016 65.8083 90.8016 68.6083 94.1016 70.7083C95.7016 71.7083 97.3016 72.8083 99.4016 72.5083C101.902 72.1083 104.402 71.4083 106.902 70.9083C107.002 70.9083 107.102 70.8083 107.202 70.8083C109.702 69.6083 111.902 67.8083 114.502 66.9083C114.802 66.8083 115.002 66.4083 115.302 66.1083C115.602 65.8083 115.702 65.3083 116.002 65.2083C118.802 64.3083 120.602 61.5083 123.602 61.1083C123.902 61.1083 124.202 60.6083 124.502 60.4083C124.902 60.1083 125.102 59.5083 125.602 59.4083C127.602 58.8083 128.802 57.2083 130.202 55.8083C130.502 55.5083 131.002 55.5083 131.502 55.4083C131.402 55.7083 131.302 56.1083 131.202 56.4083C131.902 56.7083 132.202 56.3083 132.602 55.9083C133.602 55.0083 134.502 54.2083 135.502 53.4083C137.102 52.0083 139.102 50.9083 140.302 49.0083C140.502 48.8083 140.702 48.6083 141.002 48.4083C143.302 46.7083 145.602 45.0083 147.902 43.2083C149.602 41.9083 151.202 40.6083 152.802 39.3083C153.802 38.5083 154.802 37.6083 155.702 36.8083C155.802 36.7083 155.902 36.4083 156.002 36.2083C155.702 35.8083 155.502 35.3083 155.202 34.9083C155.802 33.4083 157.702 33.4083 158.302 31.5083C157.602 32.0083 157.302 32.3083 156.902 32.5083C156.502 32.7083 156.002 32.8083 155.202 33.1083C156.202 30.9083 157.402 30.0083 159.402 29.9083C159.402 31.2083 159.102 32.3083 160.402 33.6083C159.802 31.5083 161.602 30.2083 161.002 28.4083C160.902 28.2083 161.402 27.7083 161.702 27.5083C162.502 26.9083 163.502 26.6083 164.202 26.0083C165.002 25.4083 165.702 24.4083 166.702 24.0083C167.002 23.9083 167.302 23.9083 167.602 23.8083C168.002 24.1083 168.302 24.4083 168.702 24.8083C168.602 25.1083 168.402 25.5083 168.202 26.2083C169.402 25.6083 170.302 25.2083 171.202 24.8083C172.002 24.4083 172.802 24.1083 173.402 23.3083C174.502 21.9083 175.902 21.9083 177.402 22.7083C177.902 23.8083 177.802 24.8083 177.502 25.9083C177.202 27.0083 176.902 28.0083 176.802 29.1083C176.702 30.7083 176.202 32.2083 175.602 33.7083C173.402 39.3083 172.602 45.2083 171.602 51.1083C171.202 53.7083 171.402 56.2083 171.702 58.8083C172.002 62.1083 174.402 63.9083 176.302 66.1083C176.502 66.4083 177.002 66.5083 177.402 66.5083C179.002 66.8083 180.502 67.1083 182.102 67.1083C183.502 67.1083 185.302 67.5083 186.402 66.3083C187.402 65.1083 188.702 64.8083 190.002 64.5083C191.302 64.2083 192.502 64.0083 193.502 63.0083C193.902 62.6083 194.602 62.3083 195.102 62.3083C197.302 62.2083 198.902 60.7083 200.702 59.8083C202.602 58.9083 204.202 57.3083 205.902 56.0083C206.102 55.8083 206.402 55.8083 206.702 55.8083C207.102 56.3083 207.502 56.7083 208.002 57.1083C208.902 56.5083 209.902 56.0083 210.602 55.4083C211.402 54.7083 211.802 53.5083 212.702 52.9083C213.502 52.3083 214.702 52.5083 215.602 51.8083C217.802 50.1083 220.102 48.5083 222.302 46.8083C222.602 46.6083 222.902 46.2083 223.002 45.9083C223.302 45.0083 224.002 44.8083 224.802 44.6083C225.102 44.5083 225.402 44.1083 225.602 43.9083C224.702 43.4083 224.602 43.1083 225.202 42.6083C225.502 42.4083 225.802 42.3083 226.202 42.1083V26.6083C226.102 26.6083 226.002 26.7083 225.902 26.7083C224.702 26.7083 224.302 27.2083 223.902 27.4083ZM-50.4984 21.1083C-50.5984 21.0083 -50.6984 20.8083 -50.6984 20.7083C-50.5984 20.6083 -50.4984 20.5083 -50.2984 20.4083C-50.1984 20.5083 -50.0984 20.7083 -50.0984 20.8083C-50.1984 20.9083 -50.2984 21.0083 -50.4984 21.1083ZM-51.6984 19.2083C-51.3984 17.2083 -49.9984 17.2083 -48.6984 17.4083C-49.5984 18.2083 -50.3984 19.0083 -51.6984 19.2083ZM-44.7984 15.1083L-44.5984 15.0083C-44.5984 15.2083 -44.7984 15.1083 -44.7984 15.1083ZM-32.2984 63.7083C-32.5984 63.9083 -32.8984 64.0083 -33.2984 64.1083L-33.3984 63.9083C-33.0984 63.6083 -32.8984 63.4083 -32.5984 63.2083C-32.5984 63.2083 -32.3984 63.2083 -32.0984 63.2083C-32.2984 63.5083 -32.2984 63.6083 -32.2984 63.7083ZM-30.7984 69.0083C-30.7984 68.9083 -30.8984 68.8083 -30.8984 68.7083C-30.8984 68.7083 -30.7984 68.6083 -30.6984 68.6083C-30.6984 68.7083 -30.6984 68.7083 -30.5984 68.8083C-30.6984 68.9083 -30.6984 68.9083 -30.7984 69.0083ZM-24.3984 56.9083C-25.7984 56.0083 -25.7984 55.8083 -24.3984 54.8083V56.9083ZM-17.0984 51.6083C-17.0984 51.4083 -16.8984 51.5083 -16.8984 51.5083L-17.0984 51.6083ZM-9.49844 44.3083C-9.29844 44.3083 -9.19843 44.3083 -8.99844 44.3083C-9.09843 44.5083 -9.09844 44.6083 -9.19844 44.8083C-9.29844 44.7083 -9.49844 44.7083 -9.59843 44.6083C-9.59843 44.5083 -9.59843 44.3083 -9.49844 44.3083ZM-10.1984 48.4083C-9.49844 47.1083 -8.89844 46.4083 -7.79844 45.7083C-7.89844 47.4083 -8.89844 47.6083 -10.1984 48.4083ZM-3.99844 41.4083C-4.09843 41.3083 -4.19844 41.1083 -4.39844 40.9083C-4.19844 40.7083 -4.09843 40.5083 -3.89844 40.4083C-3.79844 40.6083 -3.49844 40.8083 -3.49844 40.9083C-3.59843 41.1083 -3.79844 41.2083 -3.99844 41.4083ZM-3.59843 37.7083C-3.69843 37.6083 -3.89844 37.5083 -3.99844 37.4083C-3.99844 37.3083 -3.89844 37.1083 -3.69844 37.0083C-3.59844 37.0083 -3.39844 37.1083 -3.29844 37.2083C-3.39844 37.5083 -3.49844 37.6083 -3.59843 37.7083ZM-2.69844 45.8083C-2.79844 45.8083 -2.89844 45.7083 -2.89844 45.7083C-2.79844 45.6083 -2.69844 45.4083 -2.69844 45.3083C-2.59844 45.4083 -2.39844 45.5083 -2.29844 45.6083C-2.49844 45.6083 -2.59844 45.7083 -2.69844 45.8083ZM3.60156 29.9083C3.60156 29.8083 3.50156 29.7083 3.50156 29.7083C3.60156 29.6083 3.70155 29.5083 3.80156 29.4083C3.80156 29.5083 3.90157 29.6083 3.90157 29.6083C3.80156 29.7083 3.70157 29.8083 3.60156 29.9083ZM21.8016 21.9083C22.1016 21.5083 22.5016 21.1083 23.0016 20.5083C23.0016 21.7083 22.4016 21.8083 21.8016 21.9083ZM19.8016 21.0083C19.2016 21.4083 18.7016 22.1083 18.2016 22.6083C17.5016 22.8083 16.7016 23.0083 15.9016 23.1083C15.7016 20.1083 17.0016 18.5083 20.8016 16.8083C20.9016 17.2083 21.1016 17.7083 21.3016 18.3083C22.5016 17.4083 23.3016 16.4083 23.6016 15.0083C23.9016 13.6083 23.9016 13.7083 25.2016 13.8083C25.9016 13.9083 26.5016 13.9083 27.3016 14.0083C27.0016 15.6083 26.2016 16.6083 25.0016 17.4083C23.2016 18.6083 21.4016 19.7083 19.8016 21.0083ZM73.0016 34.5083C72.8016 34.6083 72.5016 34.7083 72.3016 34.8083C72.2016 34.6083 72.1016 34.4083 72.1016 34.3083C72.3016 34.1083 72.6016 33.9083 72.9016 33.7083C73.0016 33.9083 73.0016 34.0083 73.1016 34.2083C73.1016 34.3083 73.0016 34.5083 73.0016 34.5083ZM130.802 54.9083C130.802 54.2083 131.102 53.6083 132.102 53.7083C131.702 54.1083 131.202 54.5083 130.802 54.9083ZM152.902 36.5083C152.602 36.8083 152.202 36.9083 151.802 37.2083C151.702 37.0083 151.502 36.9083 151.402 36.7083C151.702 36.4083 152.002 36.0083 152.302 35.7083C152.502 35.6083 152.802 35.7083 153.002 35.7083C153.002 36.0083 153.102 36.3083 152.902 36.5083ZM167.902 24.4083C167.702 23.5083 168.002 22.9083 169.002 22.6083C169.002 23.4083 168.602 24.0083 167.902 24.4083ZM169.102 22.6083C169.602 22.4083 170.202 22.2083 170.402 23.2083C169.902 22.9083 169.502 22.7083 169.102 22.6083ZM176.402 20.5083C176.402 20.6083 176.202 20.6083 176.202 20.6083C176.202 20.5083 176.202 20.3083 176.202 20.2083L176.402 20.3083C176.402 20.3083 176.402 20.4083 176.402 20.5083Z" fill="#E98C14"/>
</svg>
