<svg width="161" height="259" viewBox="0 0 161 259" fill="none" xmlns="http://www.w3.org/2000/svg">
<g opacity="0.5">
<rect x="87.0234" y="32.9037" width="69.2348" height="69.2348" rx="34.6174" transform="rotate(18.1825 87.0234 32.9037)" fill="#E98C14"/>
<path d="M116.841 34.1065L116.211 33.7162L31.8255 172.814L32.456 173.205L116.841 34.1065Z" fill="#3F3F3F"/>
<path d="M137.06 46.626L136.43 46.2358L52.0443 185.334L52.6747 185.724L137.06 46.626Z" fill="#3F3F3F"/>
<path d="M157.283 59.1377L156.652 58.7475L72.2669 197.846L72.8974 198.236L157.283 59.1377Z" fill="#3F3F3F"/>
<path d="M177.502 71.6533L176.871 71.2631L92.4857 210.361L93.1161 210.751L177.502 71.6533Z" fill="#3F3F3F"/>
<path d="M197.732 84.1768L197.102 83.7866L112.716 222.885L113.347 223.275L197.732 84.1768Z" fill="#3F3F3F"/>
<path d="M217.955 96.6885L217.324 96.2983L132.939 235.396L133.569 235.787L217.955 96.6885Z" fill="#3F3F3F"/>
<path d="M224.766 125.623L87.582 40.7162L87.1942 41.3555L224.378 126.262L224.766 125.623Z" fill="#3F3F3F"/>
<path d="M212.324 146.131L75.1406 61.2241L74.7528 61.8633L211.937 146.77L212.324 146.131Z" fill="#3F3F3F"/>
<path d="M199.891 166.631L62.707 81.7241L62.3192 82.3633L199.503 167.27L199.891 166.631Z" fill="#3F3F3F"/>
<path d="M187.449 187.142L50.2656 102.236L49.8778 102.875L187.062 187.782L187.449 187.142Z" fill="#3F3F3F"/>
<path d="M175.008 207.646L37.8242 122.74L37.4364 123.379L174.62 208.286L175.008 207.646Z" fill="#3F3F3F"/>
<path d="M162.567 228.158L25.3828 143.251L24.995 143.891L162.179 228.797L162.567 228.158Z" fill="#3F3F3F"/>
<rect x="97.6992" y="65.2436" width="69.2348" height="69.2348" rx="34.6174" transform="rotate(18.1825 97.6992 65.2436)" fill="#F1AC53"/>
</g>
</svg>
