<svg width="57" height="57" viewBox="0 0 57 57" fill="none" xmlns="http://www.w3.org/2000/svg">
<g clip-path="url(#clip0_287_896)">
<path d="M43.6044 34.0869C44.1557 32.0393 45.4236 29.4384 44.7069 27.9995C43.8249 26.3393 40.793 26.6714 38.6431 26.118C36.4381 25.5092 33.6267 24.0704 32.0831 24.9005C30.264 25.8413 30.8152 29.217 29.9332 31.5413C29.7679 33.5888 27.9487 36.1345 29.0512 37.684C29.9884 39.0121 32.91 38.9568 34.9497 39.3995C37.1547 39.8976 39.911 41.3364 41.5096 40.5617C43.439 39.6762 42.998 36.3558 43.6044 34.0869Z" fill="#E98C14"/>
<path d="M12.4584 33.7548C13.3404 35.4703 16.3723 35.1382 18.5222 35.6363C25.468 37.3518 25.468 37.2965 27.1218 30.2683C27.618 28.2208 28.941 25.6198 28.1692 24.181C27.2872 22.4654 24.2002 23.0188 22.1054 22.4101C19.9003 21.912 17.0889 20.3072 15.6005 21.1373C13.8365 22.0781 14.1673 25.3984 13.616 27.7227C13.0096 29.7149 11.6866 32.3159 12.4584 33.7548Z" fill="#E98C14"/>
<path d="M40.793 44.5969C39.8007 42.9367 36.6586 43.2687 34.4535 42.7153C32.3587 42.1619 29.7127 40.8338 28.1692 41.6085C26.5154 42.4386 27.0115 45.593 26.4603 47.6959C25.9642 49.9095 24.3655 52.7318 25.1924 54.226C26.1295 55.9969 29.4371 55.5542 31.6972 56.2736C32.5241 56.5503 33.4061 56.7163 34.2881 56.8823C37.0996 57.3804 38.4777 56.4396 39.1392 53.7833C39.3597 52.8979 39.5802 52.0678 39.7456 51.1823C40.0763 48.9134 41.7852 46.2571 40.793 44.5969Z" fill="#E98C14"/>
<path d="M23.2079 46.8107C23.7592 44.7631 25.027 42.1621 24.2553 40.7233C23.3733 39.0631 20.2862 39.5611 18.5773 38.9524C16.3723 38.4543 14.5532 38.1223 12.7891 37.5689C11.5212 37.1815 11.1354 37.6242 10.8597 38.8417C10.3636 41.4427 9.7021 44.0437 9.09571 46.6446C8.43421 49.4116 9.26109 50.8505 11.9623 51.6806C12.7891 51.9573 13.6711 52.1233 14.5532 52.2893C16.8133 52.7874 19.5696 54.2262 21.1131 53.3961C22.9874 52.4 22.6015 49.0796 23.2079 46.8107Z" fill="#E98C14"/>
<path d="M16.4275 16.9313C17.4749 18.3702 20.5619 18.3148 22.7669 18.8682C29.3269 20.4178 29.382 20.4178 30.8704 13.8877C31.3666 11.6741 33.0203 8.96242 31.9178 7.35756C30.9256 5.97407 27.9488 5.97407 25.7989 5.42067C25.7989 5.47601 25.7989 5.47601 25.7989 5.53135C25.6886 5.53135 25.6335 5.47601 25.5232 5.47601C23.3733 5.08863 20.8375 3.31775 19.294 4.42455C17.971 5.36533 18.0261 8.29834 17.5851 10.3459C17.089 12.6148 15.3801 15.3818 16.4275 16.9313Z" fill="#E98C14"/>
<path d="M33.0203 20.9158C33.9574 22.244 36.9342 22.0779 38.9739 22.5207V22.576C40.2418 22.8527 41.6199 23.0741 42.8327 23.5168C45.1479 24.4022 46.471 23.9042 46.6915 21.1925C46.8017 19.975 47.2427 18.7576 47.5183 17.5401C47.9042 15.3818 49.558 12.8915 48.6209 11.2313C47.6286 9.51581 44.6518 9.90319 42.557 9.34979C40.352 8.79639 37.5957 7.4129 35.9971 8.243C34.3433 9.12843 34.6189 12.3935 34.1228 14.6071C33.5715 16.7653 31.9178 19.3663 33.0203 20.9158Z" fill="#E98C14"/>
<path d="M0 29.7703C0 30.6557 0.330754 31.3752 1.59865 31.7625C8.76499 33.7548 8.76499 33.8101 10.4188 26.7266C10.4188 26.6159 10.4739 26.5606 10.4739 26.4499C10.5841 26.0072 10.6944 25.5645 10.7495 25.1771C11.9623 19.9198 11.9623 19.9198 6.89072 18.7023C1.65377 17.4849 1.54352 17.4295 0.551257 22.7975C0.110251 25.0664 0.0551257 27.446 0 29.7703Z" fill="#E98C14"/>
<path d="M46.7466 34.7509C44.9274 42.4431 44.9274 42.4431 51.4874 43.3839C51.5976 43.3839 51.6528 43.3839 51.763 43.4392C52.7553 43.6606 53.3617 43.3839 53.8578 42.3877C55.5116 39.2334 56.559 35.9683 56.9448 32.4266C57.1102 30.8771 56.5038 30.1577 54.9052 29.881C52.7553 29.6043 50.1092 27.9994 48.6209 28.8295C46.8568 29.7703 47.4081 32.98 46.7466 34.7509Z" fill="#E98C14"/>
<path d="M6.94587 15.1053C8.37914 15.4374 9.86754 15.7694 11.3559 16.1015C12.0726 16.2675 12.7892 16.3228 13.0097 15.382C13.9468 11.3976 14.884 7.35777 15.9314 2.87524C11.3008 4.97816 8.15864 7.91117 5.5126 11.3976C3.47295 13.9985 3.63833 14.3306 6.94587 15.1053Z" fill="#E98C14"/>
<path d="M54.7399 26.3393C55.0155 26.3947 55.236 26.45 55.5116 26.5054C56.559 26.616 56.9449 26.616 56.7795 25.1772C56.1731 20.75 54.354 16.8762 51.9836 12.5044C51.3221 15.2714 50.8259 17.4296 50.3298 19.5325C49.0068 25.1772 49.0068 25.1772 54.7399 26.3393Z" fill="#E98C14"/>
<path d="M1.21281 34.9678C1.15769 34.9678 1.10256 35.0231 0.99231 35.0785C1.32306 38.6755 3.7486 43.5454 5.95362 45.095C8.70991 36.2959 8.54453 36.0192 1.21281 34.9678Z" fill="#E98C14"/>
<path d="M51.3221 46.6445C49.1722 46.1464 47.4633 45.7591 45.7544 45.3163C44.8724 45.095 44.3211 45.0396 44.0455 46.2018C43.4942 48.8581 42.8327 51.4591 42.1161 54.5027C45.9198 52.4552 48.676 49.9649 51.3221 46.6445Z" fill="#E98C14"/>
<path d="M32.0832 3.26253C33.1857 3.53923 33.4613 3.15185 33.6267 2.15573C33.737 1.38097 34.0677 0.329516 32.9652 0.274177C29.382 0.0528174 25.7437 -0.445241 21.6644 0.772235C25.5232 1.71301 28.8308 2.43243 32.0832 3.26253Z" fill="#E98C14"/>
<path d="M37.706 4.59079C40.4072 5.14419 43.0532 5.80827 46.3608 6.58303C43.5493 4.31409 41.1789 2.81992 38.4227 1.98982C37.6509 1.76846 36.9343 1.49176 36.7138 2.70924C36.5484 3.7607 36.4381 4.36943 37.706 4.59079Z" fill="#E98C14"/>
</g>
<defs>
<clipPath id="clip0_287_896">
<rect width="57" height="57" fill="white" transform="translate(0 -0.00244141)"/>
</clipPath>
</defs>
</svg>
