<svg width="228" height="219" viewBox="0 0 228 219" fill="none" xmlns="http://www.w3.org/2000/svg">
<path d="M223.01 2.00347C217.32 3.83392 211.711 5.6065 206.021 7.43694C204.345 8.01291 204.187 10.2095 205.382 11.2014C207.665 13.3824 209.972 15.424 212.255 17.605C199.384 32.9907 181.426 43.2803 162.388 49.8C142.139 56.688 117.516 57.2383 101.262 72.6946C97.8341 75.9853 94.2034 80.8912 91.4775 86.3811C79.7791 83.8915 66.6257 85.745 56.776 90.5267C43.6432 96.9022 34.6873 109.51 32.7946 123.605C20.3957 129.46 10.1376 142.134 5.20671 153.848C-3.93935 175.174 -0.216532 200.121 14.5373 217.976C15.5448 219.223 17.5837 217.777 16.5762 216.53C5.8785 202.662 1.05284 184.629 4.57155 167.295C7.74816 151.554 17.8881 135.776 32.5127 128.219C32.4941 130.44 32.557 132.602 32.8988 134.812C34.9706 148.791 50.1687 169.52 65.4829 157.06C79.5501 145.607 70.718 126.247 55.5158 121.584C49.2445 119.658 43.094 119.976 37.3221 121.864C39.5197 110.618 46.8286 100.528 57.2965 95.062C66.5884 90.1855 78.8238 88.2478 89.7094 90.4559C85.0231 101.996 84.3538 115.223 95.0968 122.069C101.431 126.158 109.318 124.485 113.291 117.988C117.685 110.701 115.736 101.907 109.907 96.111C105.933 92.0646 100.885 89.2704 95.426 87.6258C100.97 76.9484 111.341 69.0994 123.013 64.986C132.323 61.6906 142.152 59.9895 151.738 57.6017C161.267 55.1323 170.635 51.9184 179.448 47.7496C193.244 41.2715 205.861 32.4414 215.651 20.8358C216.821 21.9671 218.073 23.0405 219.244 24.1718C220.054 25.3136 221.004 26.479 221.732 27.6787C222.369 28.5758 223.426 28.6837 224.218 28.2445C225.439 28.2367 226.57 27.0662 226.505 25.764C226.692 17.9062 226.914 10.2694 227.217 2.5747C227.283 0.0755686 223.9 0.146299 223.01 2.00347ZM60.4241 128.156C66.7925 132.466 70.5116 140.126 67.5357 147.511C64.3256 155.429 55.7467 159.063 48.3339 154.146C41.8838 149.894 38.2121 141.955 37.05 134.441C36.6636 131.65 36.6138 128.988 36.7851 126.291C44.4432 123.433 53.2086 123.344 60.4241 128.156ZM104.464 96.9076C110.877 101.799 115.085 112.914 107.069 118.724C103.399 121.328 98.5905 120.081 95.4839 117.258C91.7513 113.898 90.7679 108.71 90.9341 103.933C91.1107 99.516 91.9608 95.357 93.4843 91.4559C97.5144 92.6426 101.229 94.4213 104.464 96.9076Z" fill="white" fill-opacity="0.8"/>
</svg>
