<svg width="138" height="20" viewBox="0 0 138 20" fill="none" xmlns="http://www.w3.org/2000/svg">
<path d="M1.39313 17.3699C0.867459 17.5393 0.578618 18.1027 0.747988 18.6284C0.917359 19.1541 1.4808 19.4429 2.00648 19.2735L1.39313 17.3699ZM137.311 9.61287C137.748 9.27514 137.828 8.64711 137.491 8.21012L131.987 1.08903C131.649 0.652048 131.021 0.571586 130.584 0.909317C130.147 1.24705 130.067 1.87508 130.404 2.31207L135.297 8.64192L128.967 13.5341C128.53 13.8718 128.449 14.4998 128.787 14.9368C129.125 15.3738 129.753 15.4542 130.19 15.1165L137.311 9.61287ZM6.67123 17.7871C7.19801 17.6212 7.49057 17.0596 7.32468 16.5329C7.15879 16.0061 6.59727 15.7135 6.07048 15.8794L6.67123 17.7871ZM15.4488 13.0094C14.9192 13.1662 14.617 13.7226 14.7739 14.2522C14.9307 14.7817 15.4871 15.0839 16.0166 14.9271L15.4488 13.0094ZM25.3999 12.2636C25.9331 12.1195 26.2485 11.5705 26.1044 11.0373C25.9603 10.5041 25.4113 10.1887 24.8781 10.3328L25.3999 12.2636ZM34.404 7.91635C33.8664 8.04297 33.5333 8.5814 33.6599 9.11898C33.7865 9.65655 34.325 9.9897 34.8625 9.86308L34.404 7.91635ZM44.3888 7.82389C44.9313 7.72027 45.2871 7.19651 45.1835 6.65404C45.0798 6.11156 44.5561 5.75579 44.0136 5.8594L44.3888 7.82389ZM53.7157 4.25954C53.1686 4.33485 52.7861 4.83943 52.8614 5.38656C52.9367 5.93368 53.4413 6.31616 53.9885 6.24086L53.7157 4.25954ZM63.6552 5.19008C64.2057 5.1463 64.6165 4.66451 64.5728 4.11396C64.529 3.56341 64.0472 3.15259 63.4966 3.19637L63.6552 5.19008ZM73.3223 2.69659C72.7701 2.70934 72.3329 3.16727 72.3456 3.71941C72.3584 4.27154 72.8163 4.70881 73.3684 4.69606L73.3223 2.69659ZM83.1009 4.71622C83.653 4.73034 84.112 4.29421 84.1262 3.7421C84.1403 3.19 83.7041 2.73099 83.152 2.71688L83.1009 4.71622ZM92.9669 3.16242C92.4157 3.1275 91.9405 3.54601 91.9056 4.09719C91.8707 4.64837 92.2892 5.1235 92.8404 5.15842L92.9669 3.16242ZM102.569 5.91429C103.12 5.96399 103.606 5.55838 103.655 5.00833C103.705 4.45829 103.3 3.9721 102.749 3.9224L102.569 5.91429ZM112.496 4.89713C111.947 4.83763 111.454 5.2345 111.394 5.78357C111.335 6.33264 111.732 6.82598 112.281 6.88548L112.496 4.89713ZM121.991 7.99713C122.539 8.06274 123.037 7.67139 123.102 7.12302C123.168 6.57465 122.777 6.07691 122.228 6.01129L121.991 7.99713ZM131.956 7.21026C131.409 7.14113 130.908 7.52928 130.839 8.07722C130.77 8.62516 131.158 9.1254 131.706 9.19453L131.956 7.21026ZM2.00648 19.2735C3.59102 18.763 5.14531 18.2676 6.67123 17.7871L6.07048 15.8794C4.54008 16.3614 2.98158 16.8581 1.39313 17.3699L2.00648 19.2735ZM16.0166 14.9271C19.2665 13.9647 22.3867 13.078 25.3999 12.2636L24.8781 10.3328C21.8477 11.1519 18.712 12.043 15.4488 13.0094L16.0166 14.9271ZM34.8625 9.86308C38.1388 9.09138 41.3024 8.41341 44.3888 7.82389L44.0136 5.8594C40.8969 6.4547 37.7055 7.13871 34.404 7.91635L34.8625 9.86308ZM53.9885 6.24086C57.2411 5.79314 60.4477 5.44514 63.6552 5.19008L63.4966 3.19637C60.2505 3.4545 57.0059 3.80666 53.7157 4.25954L53.9885 6.24086ZM73.3684 4.69606C76.5504 4.62259 79.7799 4.63134 83.1009 4.71622L83.152 2.71688C79.8013 2.63123 76.5392 2.62232 73.3223 2.69659L73.3684 4.69606ZM92.8404 5.15842C95.9688 5.35664 99.2016 5.61 102.569 5.91429L102.749 3.9224C99.3665 3.61675 96.1157 3.36194 92.9669 3.16242L92.8404 5.15842ZM112.281 6.88548C115.392 7.22268 118.623 7.59411 121.991 7.99713L122.228 6.01129C118.854 5.60759 115.617 5.23528 112.496 4.89713L112.281 6.88548ZM131.706 9.19453C133.298 9.39538 134.919 9.60179 136.572 9.81353L136.826 7.82974C135.173 7.61787 133.55 7.4113 131.956 7.21026L131.706 9.19453ZM1.39313 17.3699C0.867459 17.5393 0.578618 18.1027 0.747988 18.6284C0.917359 19.1541 1.4808 19.4429 2.00648 19.2735L1.39313 17.3699ZM137.311 9.61287C137.748 9.27514 137.828 8.64711 137.491 8.21012L131.987 1.08903C131.649 0.652048 131.021 0.571586 130.584 0.909317C130.147 1.24705 130.067 1.87508 130.404 2.31207L135.297 8.64192L128.967 13.5341C128.53 13.8718 128.449 14.4998 128.787 14.9368C129.125 15.3738 129.753 15.4542 130.19 15.1165L137.311 9.61287ZM6.67123 17.7871C7.19801 17.6212 7.49057 17.0596 7.32468 16.5329C7.15879 16.0061 6.59727 15.7135 6.07048 15.8794L6.67123 17.7871ZM15.4488 13.0094C14.9192 13.1662 14.617 13.7226 14.7739 14.2522C14.9307 14.7817 15.4871 15.0839 16.0166 14.9271L15.4488 13.0094ZM25.3999 12.2636C25.9331 12.1195 26.2485 11.5705 26.1044 11.0373C25.9603 10.5041 25.4113 10.1887 24.8781 10.3328L25.3999 12.2636ZM34.404 7.91635C33.8664 8.04297 33.5333 8.5814 33.6599 9.11898C33.7865 9.65655 34.325 9.9897 34.8625 9.86308L34.404 7.91635ZM44.3888 7.82389C44.9313 7.72027 45.2871 7.19651 45.1835 6.65404C45.0798 6.11156 44.5561 5.75579 44.0136 5.8594L44.3888 7.82389ZM53.7157 4.25954C53.1686 4.33485 52.7861 4.83943 52.8614 5.38656C52.9367 5.93368 53.4413 6.31616 53.9885 6.24086L53.7157 4.25954ZM63.6552 5.19008C64.2057 5.1463 64.6165 4.66451 64.5728 4.11396C64.529 3.56341 64.0472 3.15259 63.4966 3.19637L63.6552 5.19008ZM73.3223 2.69659C72.7701 2.70934 72.3329 3.16727 72.3456 3.71941C72.3584 4.27154 72.8163 4.70881 73.3684 4.69606L73.3223 2.69659ZM83.1009 4.71622C83.653 4.73034 84.112 4.29421 84.1262 3.7421C84.1403 3.19 83.7041 2.73099 83.152 2.71688L83.1009 4.71622ZM92.9669 3.16242C92.4157 3.1275 91.9405 3.54601 91.9056 4.09719C91.8707 4.64837 92.2892 5.1235 92.8404 5.15842L92.9669 3.16242ZM102.569 5.91429C103.12 5.96399 103.606 5.55838 103.655 5.00833C103.705 4.45829 103.3 3.9721 102.749 3.9224L102.569 5.91429ZM112.496 4.89713C111.947 4.83763 111.454 5.2345 111.394 5.78357C111.335 6.33264 111.732 6.82598 112.281 6.88548L112.496 4.89713ZM121.991 7.99713C122.539 8.06274 123.037 7.67139 123.102 7.12302C123.168 6.57465 122.777 6.07691 122.228 6.01129L121.991 7.99713ZM131.956 7.21026C131.409 7.14113 130.908 7.52928 130.839 8.07722C130.77 8.62516 131.158 9.1254 131.706 9.19453L131.956 7.21026ZM2.00648 19.2735C3.59102 18.763 5.14531 18.2676 6.67123 17.7871L6.07048 15.8794C4.54008 16.3614 2.98158 16.8581 1.39313 17.3699L2.00648 19.2735ZM16.0166 14.9271C19.2665 13.9647 22.3867 13.078 25.3999 12.2636L24.8781 10.3328C21.8477 11.1519 18.712 12.043 15.4488 13.0094L16.0166 14.9271ZM34.8625 9.86308C38.1388 9.09138 41.3024 8.41341 44.3888 7.82389L44.0136 5.8594C40.8969 6.4547 37.7055 7.13871 34.404 7.91635L34.8625 9.86308ZM53.9885 6.24086C57.2411 5.79314 60.4477 5.44514 63.6552 5.19008L63.4966 3.19637C60.2505 3.4545 57.0059 3.80666 53.7157 4.25954L53.9885 6.24086ZM73.3684 4.69606C76.5504 4.62259 79.7799 4.63134 83.1009 4.71622L83.152 2.71688C79.8013 2.63123 76.5392 2.62232 73.3223 2.69659L73.3684 4.69606ZM92.8404 5.15842C95.9688 5.35664 99.2016 5.61 102.569 5.91429L102.749 3.9224C99.3665 3.61675 96.1157 3.36194 92.9669 3.16242L92.8404 5.15842ZM112.281 6.88548C115.392 7.22268 118.623 7.59411 121.991 7.99713L122.228 6.01129C118.854 5.60759 115.617 5.23528 112.496 4.89713L112.281 6.88548ZM131.706 9.19453C133.298 9.39538 134.919 9.60179 136.572 9.81353L136.826 7.82974C135.173 7.61787 133.55 7.4113 131.956 7.21026L131.706 9.19453Z" fill="#302043" fill-opacity="0.7"/>
</svg>
